{
    "asset" : {
        "generator" : "Khronos glTF Blender I/O v1.1.46",
        "version" : "2.0"
    },
    "scene" : 0,
    "scenes" : [
        {
            "name" : "Scene",
            "nodes" : [
                0,
                1,
                2,
                3,
                4,
                5,
                6,
                7,
                8
            ]
        }
    ],
    "nodes" : [
        {
            "name" : "Light",
            "rotation" : [
                0.16907575726509094,
                0.7558803558349609,
                -0.27217137813568115,
                0.570947527885437
            ],
            "translation" : [
                4.076245307922363,
                5.903861999511719,
                -1.0054539442062378
            ]
        },
        {
            "name" : "Camera",
            "rotation" : [
                0.483536034822464,
                0.33687159419059753,
                -0.20870360732078552,
                0.7804827094078064
            ],
            "translation" : [
                7.358891487121582,
                4.958309173583984,
                6.925790786743164
            ]
        },
        {
            "mesh" : 0,
            "name" : "polySurface1",
            "rotation" : [
                -0.028026079759001732,
                -0.0038946205750107765,
                -0.9995995759963989,
                0.0001091946687665768
            ],
            "scale" : [
                0.9291633367538452,
                0.9291633367538452,
                0.9291633367538452
            ],
            "translation" : [
                0,
                0,
                0.9415839910507202
            ]
        },
        {
            "mesh" : 1,
            "name" : "polySurface3",
            "rotation" : [
                -0.028026079759001732,
                -0.0038946205750107765,
                -0.9995995759963989,
                0.0001091946687665768
            ],
            "scale" : [
                0.9291633367538452,
                0.9291633367538452,
                0.9291633367538452
            ],
            "translation" : [
                0,
                0,
                0.9415839910507202
            ]
        },
        {
            "mesh" : 2,
            "name" : "polySurface5",
            "rotation" : [
                -0.028026079759001732,
                -0.0038946205750107765,
                -0.9995995759963989,
                0.0001091946687665768
            ],
            "scale" : [
                0.9291633367538452,
                0.9291633367538452,
                0.9291633367538452
            ],
            "translation" : [
                0,
                0,
                0.9415839910507202
            ]
        },
        {
            "mesh" : 3,
            "name" : "polySurface7",
            "rotation" : [
                -0.028026079759001732,
                -0.0038946205750107765,
                -0.9995995759963989,
                0.0001091946687665768
            ],
            "scale" : [
                0.9291633367538452,
                0.9291633367538452,
                0.9291633367538452
            ],
            "translation" : [
                0,
                0,
                0.9415839910507202
            ]
        },
        {
            "mesh" : 4,
            "name" : "polySurface9",
            "rotation" : [
                -0.028026079759001732,
                -0.0038946205750107765,
                -0.9995995759963989,
                0.0001091946687665768
            ],
            "scale" : [
                0.9291633367538452,
                0.9291633367538452,
                0.9291633367538452
            ],
            "translation" : [
                0,
                0,
                0.9415839910507202
            ]
        },
        {
            "mesh" : 5,
            "name" : "polySurface11",
            "rotation" : [
                -0.028026079759001732,
                -0.0038946205750107765,
                -0.9995995759963989,
                0.0001091946687665768
            ],
            "scale" : [
                0.9291633367538452,
                0.9291633367538452,
                0.9291633367538452
            ],
            "translation" : [
                0,
                0,
                0.9415839910507202
            ]
        },
        {
            "mesh" : 6,
            "name" : "Extrude_3",
            "rotation" : [
                -0.028026079759001732,
                -0.0038946205750107765,
                -0.9995995759963989,
                0.0001091946687665768
            ],
            "scale" : [
                0.9291633367538452,
                0.9291633367538452,
                0.9291633367538452
            ],
            "translation" : [
                0,
                0,
                0.9415839910507202
            ]
        }
    ],
    "materials" : [
        {
            "doubleSided" : true,
            "emissiveFactor" : [
                0,
                0,
                0
            ],
            "name" : "phong1",
            "pbrMetallicRoughness" : {
                "baseColorFactor" : [
                    0.35542169213294983,
                    0.35542169213294983,
                    0.35542169213294983,
                    1
                ],
                "metallicFactor" : 0.5,
                "roughnessFactor" : 0.5527864098548889
            }
        },
        {
            "doubleSided" : true,
            "emissiveFactor" : [
                0,
                0,
                0
            ],
            "name" : "phong2",
            "pbrMetallicRoughness" : {
                "baseColorFactor" : [
                    0.5,
                    0.5,
                    0.5,
                    1
                ],
                "metallicFactor" : 0.5,
                "roughnessFactor" : 0.5527864098548889
            }
        },
        {
            "doubleSided" : true,
            "emissiveFactor" : [
                0,
                0,
                0
            ],
            "name" : "phong4",
            "pbrMetallicRoughness" : {
                "baseColorFactor" : [
                    0.28313252329826355,
                    0.28313252329826355,
                    0.28313252329826355,
                    1
                ],
                "metallicFactor" : 0.5,
                "roughnessFactor" : 0.5527864098548889
            }
        },
        {
            "doubleSided" : true,
            "emissiveFactor" : [
                0,
                0,
                0
            ],
            "name" : "phong5",
            "pbrMetallicRoughness" : {
                "baseColorFactor" : [
                    0.16867469251155853,
                    0.16867469251155853,
                    0.16867469251155853,
                    1
                ],
                "metallicFactor" : 0.5,
                "roughnessFactor" : 0.5527864098548889
            }
        },
        {
            "doubleSided" : true,
            "emissiveFactor" : [
                0,
                0,
                0
            ],
            "name" : "phong3",
            "pbrMetallicRoughness" : {
                "baseColorFactor" : [
                    0.5,
                    0.5,
                    0.5,
                    1
                ],
                "metallicFactor" : 0.5,
                "roughnessFactor" : 0.5527864098548889
            }
        },
        {
            "doubleSided" : true,
            "emissiveFactor" : [
                0,
                0,
                0
            ],
            "name" : "phong6",
            "pbrMetallicRoughness" : {
                "baseColorFactor" : [
                    1,
                    1,
                    1,
                    1
                ],
                "metallicFactor" : 0.5,
                "roughnessFactor" : 0.5527864098548889
            }
        }
    ],
    "meshes" : [
        {
            "name" : "Mesh",
            "primitives" : [
                {
                    "attributes" : {
                        "POSITION" : 0,
                        "NORMAL" : 1,
                        "TEXCOORD_0" : 2
                    },
                    "indices" : 3,
                    "material" : 0
                }
            ]
        },
        {
            "name" : "Mesh.001",
            "primitives" : [
                {
                    "attributes" : {
                        "POSITION" : 4,
                        "NORMAL" : 5,
                        "TEXCOORD_0" : 6
                    },
                    "indices" : 3,
                    "material" : 1
                }
            ]
        },
        {
            "name" : "Mesh.002",
            "primitives" : [
                {
                    "attributes" : {
                        "POSITION" : 7,
                        "NORMAL" : 8,
                        "TEXCOORD_0" : 9
                    },
                    "indices" : 3,
                    "material" : 2
                }
            ]
        },
        {
            "name" : "Mesh.003",
            "primitives" : [
                {
                    "attributes" : {
                        "POSITION" : 10,
                        "NORMAL" : 11,
                        "TEXCOORD_0" : 12
                    },
                    "indices" : 3,
                    "material" : 3
                }
            ]
        },
        {
            "name" : "Mesh.004",
            "primitives" : [
                {
                    "attributes" : {
                        "POSITION" : 13,
                        "NORMAL" : 14,
                        "TEXCOORD_0" : 15
                    },
                    "indices" : 3,
                    "material" : 2
                }
            ]
        },
        {
            "name" : "Mesh.005",
            "primitives" : [
                {
                    "attributes" : {
                        "POSITION" : 16,
                        "NORMAL" : 17,
                        "TEXCOORD_0" : 18
                    },
                    "indices" : 3,
                    "material" : 4
                }
            ]
        },
        {
            "name" : "Mesh.006",
            "primitives" : [
                {
                    "attributes" : {
                        "POSITION" : 19,
                        "NORMAL" : 20,
                        "TEXCOORD_0" : 21
                    },
                    "indices" : 22,
                    "material" : 5
                }
            ]
        }
    ],
    "accessors" : [
        {
            "bufferView" : 0,
            "componentType" : 5126,
            "count" : 3,
            "max" : [
                2.9514923095703125,
                0.4972505569458008,
                -0.9375503063201904
            ],
            "min" : [
                -2.25288462638855,
                -2.042083740234375,
                -1.3246105909347534
            ],
            "type" : "VEC3"
        },
        {
            "bufferView" : 1,
            "componentType" : 5126,
            "count" : 3,
            "type" : "VEC3"
        },
        {
            "bufferView" : 2,
            "componentType" : 5126,
            "count" : 3,
            "type" : "VEC2"
        },
        {
            "bufferView" : 3,
            "componentType" : 5123,
            "count" : 3,
            "type" : "SCALAR"
        },
        {
            "bufferView" : 4,
            "componentType" : 5126,
            "count" : 3,
            "max" : [
                1.6252555847167969,
                -1.1746864318847656,
                -0.7729112505912781
            ],
            "min" : [
                -2.25288462638855,
                -2.042083740234375,
                -1.3246105909347534
            ],
            "type" : "VEC3"
        },
        {
            "bufferView" : 5,
            "componentType" : 5126,
            "count" : 3,
            "type" : "VEC3"
        },
        {
            "bufferView" : 6,
            "componentType" : 5126,
            "count" : 3,
            "type" : "VEC2"
        },
        {
            "bufferView" : 7,
            "componentType" : 5126,
            "count" : 3,
            "max" : [
                0.2738780975341797,
                1.408644676208496,
                -0.9375503063201904
            ],
            "min" : [
                -2.25288462638855,
                -1.174687385559082,
                -1.2674157619476318
            ],
            "type" : "VEC3"
        },
        {
            "bufferView" : 8,
            "componentType" : 5126,
            "count" : 3,
            "type" : "VEC3"
        },
        {
            "bufferView" : 9,
            "componentType" : 5126,
            "count" : 3,
            "type" : "VEC2"
        },
        {
            "bufferView" : 10,
            "componentType" : 5126,
            "count" : 3,
            "max" : [
                1.19305419921875,
                1.8481817245483398,
                -0.9375503063201904
            ],
            "min" : [
                -1.8206830024719238,
                1.0363435745239258,
                -1.2674157619476318
            ],
            "type" : "VEC3"
        },
        {
            "bufferView" : 11,
            "componentType" : 5126,
            "count" : 3,
            "type" : "VEC3"
        },
        {
            "bufferView" : 12,
            "componentType" : 5126,
            "count" : 3,
            "type" : "VEC2"
        },
        {
            "bufferView" : 13,
            "componentType" : 5126,
            "count" : 3,
            "max" : [
                2.9555816650390625,
                1.8481817245483398,
                -0.9375503063201904
            ],
            "min" : [
                0.2779655456542969,
                0.4972505569458008,
                -1.2674157619476318
            ],
            "type" : "VEC3"
        },
        {
            "bufferView" : 14,
            "componentType" : 5126,
            "count" : 3,
            "type" : "VEC3"
        },
        {
            "bufferView" : 15,
            "componentType" : 5126,
            "count" : 3,
            "type" : "VEC2"
        },
        {
            "bufferView" : 16,
            "componentType" : 5126,
            "count" : 3,
            "max" : [
                2.9514923095703125,
                1.0363435745239258,
                -0.9375503063201904
            ],
            "min" : [
                -2.25288462638855,
                -1.174687385559082,
                -1.2674157619476318
            ],
            "type" : "VEC3"
        },
        {
            "bufferView" : 17,
            "componentType" : 5126,
            "count" : 3,
            "type" : "VEC3"
        },
        {
            "bufferView" : 18,
            "componentType" : 5126,
            "count" : 3,
            "type" : "VEC2"
        },
        {
            "bufferView" : 19,
            "componentType" : 5126,
            "count" : 1210,
            "max" : [
                1.6590948104858398,
                1.04140305519104,
                -0.9698586463928223
            ],
            "min" : [
                -1.3913097381591797,
                -1.1692168712615967,
                -1.2777180671691895
            ],
            "type" : "VEC3"
        },
        {
            "bufferView" : 20,
            "componentType" : 5126,
            "count" : 1210,
            "type" : "VEC3"
        },
        {
            "bufferView" : 21,
            "componentType" : 5126,
            "count" : 1210,
            "type" : "VEC2"
        },
        {
            "bufferView" : 22,
            "componentType" : 5123,
            "count" : 1272,
            "type" : "SCALAR"
        }
    ],
    "bufferViews" : [
        {
            "buffer" : 0,
            "byteLength" : 36,
            "byteOffset" : 0
        },
        {
            "buffer" : 0,
            "byteLength" : 36,
            "byteOffset" : 36
        },
        {
            "buffer" : 0,
            "byteLength" : 24,
            "byteOffset" : 72
        },
        {
            "buffer" : 0,
            "byteLength" : 6,
            "byteOffset" : 96
        },
        {
            "buffer" : 0,
            "byteLength" : 36,
            "byteOffset" : 104
        },
        {
            "buffer" : 0,
            "byteLength" : 36,
            "byteOffset" : 140
        },
        {
            "buffer" : 0,
            "byteLength" : 24,
            "byteOffset" : 176
        },
        {
            "buffer" : 0,
            "byteLength" : 36,
            "byteOffset" : 200
        },
        {
            "buffer" : 0,
            "byteLength" : 36,
            "byteOffset" : 236
        },
        {
            "buffer" : 0,
            "byteLength" : 24,
            "byteOffset" : 272
        },
        {
            "buffer" : 0,
            "byteLength" : 36,
            "byteOffset" : 296
        },
        {
            "buffer" : 0,
            "byteLength" : 36,
            "byteOffset" : 332
        },
        {
            "buffer" : 0,
            "byteLength" : 24,
            "byteOffset" : 368
        },
        {
            "buffer" : 0,
            "byteLength" : 36,
            "byteOffset" : 392
        },
        {
            "buffer" : 0,
            "byteLength" : 36,
            "byteOffset" : 428
        },
        {
            "buffer" : 0,
            "byteLength" : 24,
            "byteOffset" : 464
        },
        {
            "buffer" : 0,
            "byteLength" : 36,
            "byteOffset" : 488
        },
        {
            "buffer" : 0,
            "byteLength" : 36,
            "byteOffset" : 524
        },
        {
            "buffer" : 0,
            "byteLength" : 24,
            "byteOffset" : 560
        },
        {
            "buffer" : 0,
            "byteLength" : 14520,
            "byteOffset" : 584
        },
        {
            "buffer" : 0,
            "byteLength" : 14520,
            "byteOffset" : 15104
        },
        {
            "buffer" : 0,
            "byteLength" : 9680,
            "byteOffset" : 29624
        },
        {
            "buffer" : 0,
            "byteLength" : 2544,
            "byteOffset" : 39304
        }
    ],
    "buffers" : [
        {
            "byteLength" : 41848,
            "uri" : "data:application/octet-stream;base64,"
        }
    ]
}
