{
	"asset":{
		"version":"2.0",
		"generator":"Created using the official Cinema 4D glTF Exporter 1.000x290161"
	},
	"scenes":[{
		"nodes":[0]
	}],
	"nodes":[{
		"name":"Extrude",
		"translation":[0.0,
		0.0,
		0.0],
		"rotation":[0.0,
		0.0,
		0.0,
		-1.0],
		"scale":[10.0,
		10.0,
		10.0],
		"mesh":0
	}],
	"meshes":[{
		"primitives":[{
			"attributes":{
				"POSITION":1
			},
			"indices":0,
			"material":0
		}]
	}],
	"accessors":[{
		"bufferView":0,
		"type":"SCALAR",
		"componentType":5123,
		"byteOffset":0,
		"count":1560,
		"min":[0],
		"max":[575]
	},
	{
		"bufferView":1,
		"type":"VEC3",
		"componentType":5126,
		"byteOffset":0,
		"count":576,
		"min":[-33.41375732421875,
		-24.957136154174806,
		-2.9625000953674318],
		"max":[33.41375732421875,
		24.957136154174806,
		2.9625000953674318]
	}],
	"bufferViews":[{
		"buffer":0,
		"byteOffset":0,
		"byteLength":3120,
		"target":34963
	},
	{
		"buffer":0,
		"byteOffset":3120,
		"byteLength":6912,
		"target":34962
	}],
	"buffers":[{
		"uri":"data:application/octet-stream;base64,",
		"byteLength":10032
	}],
	"materials":[{
		"pbrMetallicRoughness":{
			"baseColorFactor":[1.0,
			1.0,
			1.0,
			1.0],
			"metallicFactor":1.0,
			"roughnessFactor":1.0
		},
		"emissiveFactor":[0.0,
		0.0,
		0.0],
		"alphaMode":"OPAQUE",
		"doubleSided":false,
		"name":""
	}]
}